<svg xmlns="http://www.w3.org/2000/svg" viewBox="0 0 226.08 131.98"><title>best-buy-logo</title><polygon points="180.98 95.86 226.08 95.86 226.08 131.98 180.98 131.98 169.66 121.44 169.66 106.4 180.98 95.86" style="fill:#ffee35"/><path d="M430.2,489.74a5.59,5.59,0,0,1-4.1,1.56h-8.79V481h8.79a6.3,6.3,0,0,1,4.1,1.56,5,5,0,0,1,1.56,3.71,4.89,4.89,0,0,1-1.56,3.51m-12.69-29.09h6.83a4.59,4.59,0,0,1,3.32,1.17,4.15,4.15,0,0,1,1.37,2.93,3.51,3.51,0,0,1-1.37,2.93,4.59,4.59,0,0,1-3.32,1.17h-6.83v-8.2Zm22.06,13.67.78-.39a9,9,0,0,0,2-1.37,13.25,13.25,0,0,0,2.34-2.34,10.65,10.65,0,0,0,2-3.32,11.45,11.45,0,0,0,.78-4.49c0-4.1-2-7.61-5.66-10.54s-8.79-4.49-15.23-4.49H399v57h29.48c7.61,0,23.23-1.37,23.23-16.4,0-11.32-11.91-13.67-12.1-13.67" transform="translate(-398.96 -446.01)" style="fill:#1c252c"/><path d="M444.84,553a5.59,5.59,0,0,1-4.1,1.56h-8.59V544.21h8.59a6.3,6.3,0,0,1,4.1,1.56,5,5,0,0,1,1.56,3.71,5.25,5.25,0,0,1-1.56,3.51m-12.69-29.09H439a4.59,4.59,0,0,1,3.32,1.17,4.15,4.15,0,0,1,1.37,2.93,3.51,3.51,0,0,1-1.37,2.93,4.59,4.59,0,0,1-3.32,1.17h-6.83v-8.2Zm22.06,13.47L455,537a9,9,0,0,0,2-1.37,13.25,13.25,0,0,0,2.34-2.34,10.65,10.65,0,0,0,2-3.32,11.45,11.45,0,0,0,.78-4.49c0-4.1-2-7.61-5.66-10.54s-8.79-4.49-15.23-4.49H413.6v57h29.48c7.61,0,23.23-1.37,23.23-16.4,0-11.13-11.91-13.47-12.1-13.67" transform="translate(-398.96 -446.01)" style="fill:#1c252c"/><polygon points="99.96 44.51 72.43 44.51 72.43 35.53 94.88 35.53 94.88 22.65 72.43 22.65 72.43 15.23 100.15 15.23 100.15 1.37 53.88 1.37 53.88 58.37 99.96 58.37 99.96 44.51" style="fill:#1c252c"/><polygon points="147.21 1.37 147.21 15.23 162.24 15.23 162.24 58.37 180.59 58.37 180.59 15.23 195.82 15.23 195.82 1.37 147.21 1.37" style="fill:#1c252c"/><path d="M525.28,489.74a6.62,6.62,0,0,1-4.3,1.37,13.06,13.06,0,0,1-5.66-1.56,17.88,17.88,0,0,1-3.9-2.34c-.39-.39-.78-.59-1-1l-10.93,10.35.78.78a15.61,15.61,0,0,0,3.12,2.54,35.74,35.74,0,0,0,4.88,2.93,33.71,33.71,0,0,0,6.83,2.54,39.51,39.51,0,0,0,8.39,1c7.22,0,12.89-2,17.18-5.66a17.88,17.88,0,0,0,4.69-21.48,12.41,12.41,0,0,0-4.69-5.27,43.89,43.89,0,0,0-6.05-3.12,37.18,37.18,0,0,0-5.47-2,.72.72,0,0,1-.59-.2,16.68,16.68,0,0,1-4.69-1.76,2.64,2.64,0,0,1-1.76-2.34,2.85,2.85,0,0,1,1.37-2.54c.78-.78,2.15-1,3.71-1a10,10,0,0,1,7.22,2.93l10.93-10.35-.2-.2a10.16,10.16,0,0,0-2.54-2.15,38.29,38.29,0,0,0-4.1-2.34,26.76,26.76,0,0,0-6.05-2.15,34.2,34.2,0,0,0-7.81-.78c-6.83,0-12.3,1.76-16.59,5.47-4.1,3.71-6.25,7.81-6.25,12.69a16.73,16.73,0,0,0,1.37,7,13.69,13.69,0,0,0,3.51,4.88,30.53,30.53,0,0,0,4.88,3.32,44.66,44.66,0,0,0,4.49,2c.2.2.59.2.78.39,1.76.59,3.32,1.17,4.88,1.56a31,31,0,0,1,3.51,1.56c1,.59,1.37,1.17,1.37,2,.2,1-.39,2-1.37,2.93" transform="translate(-398.96 -446.01)" style="fill:#1c252c"/><path d="M499.11,544.41a6.92,6.92,0,0,1-6.83,6.83,6.79,6.79,0,0,1-6.83-6.83V510.63H466.9v33a24.62,24.62,0,0,0,24.6,24.6h1.17a24.62,24.62,0,0,0,24.6-24.6v-33H499.11v33.78Z" transform="translate(-398.96 -446.01)" style="fill:#1c252c"/><polygon points="149.94 83.95 137.83 64.62 119.29 64.62 140.76 101.33 140.76 121.63 159.11 121.63 159.11 101.33 180.59 64.62 162.04 64.62 149.94 83.95" style="fill:#1c252c"/><path d="M577.6,559.83a2.15,2.15,0,1,1-2.15-2.15,2.17,2.17,0,0,1,2.15,2.15" transform="translate(-398.96 -446.01)" style="fill:#1c252c"/></svg>